<?xml version="1.0" encoding="UTF-8"?>
<svg xmlns="http://www.w3.org/2000/svg" xmlns:xlink="http://www.w3.org/1999/xlink" width="128px" height="128px" viewBox="0 0 128 128" version="1.1">
<g id="surface1">
<path style=" stroke:none;fill-rule:nonzero;fill:rgb(0%,0%,0%);fill-opacity:1;" d="M 87.761719 63.777344 C 86.542969 63.777344 85.554688 64.765625 85.554688 65.984375 C 85.554688 67.203125 86.542969 68.191406 87.761719 68.191406 C 88.980469 68.191406 89.96875 67.203125 89.96875 65.984375 C 89.96875 64.765625 88.980469 63.777344 87.761719 63.777344 Z M 87.761719 63.777344 "/>
<path style="fill:none;stroke-width:1;stroke-linecap:round;stroke-linejoin:round;stroke:rgb(0%,0%,0%);stroke-opacity:1;stroke-miterlimit:4;" d="M 7.76013 30.328066 L 7.750839 31.62469 C 7.752167 32.204653 7.76013 32.840358 7.76013 32.967764 C 7.76013 38.671848 14.99707 41.413736 23.9885 41.445588 L 24.011062 41.445588 C 33.002492 41.413736 40.236778 38.671848 40.236778 32.967764 C 40.236778 32.837703 40.234124 30.909357 40.236778 30.328066 " transform="matrix(2.943341,0,0,2.943341,-6.922737,-6.781457)"/>
<path style="fill:none;stroke-width:1;stroke-linecap:round;stroke-linejoin:round;stroke:rgb(0%,0%,0%);stroke-opacity:1;stroke-miterlimit:4;" d="M 39.184349 12.955693 C 38.045656 13.529021 36.938814 14.179324 35.894349 14.870768 C 35.371452 14.350526 34.782198 13.925838 34.203561 13.481244 C 33.635542 13.024705 32.994529 12.690263 32.386695 12.300082 C 32.567188 10.953026 32.657434 9.625878 32.693267 8.241662 C 31.125904 7.453336 29.453697 6.930439 27.76291 6.554856 C 27.087392 7.689568 26.470268 8.91718 25.932773 10.119577 C 25.294414 10.012078 24.653402 9.972263 24.012389 9.965628 L 24.012389 9.9643 C 24.008407 9.9643 24.004426 9.965628 24.000445 9.965628 C 23.996463 9.965628 23.991155 9.9643 23.987173 9.9643 L 23.987173 9.965628 C 23.344833 9.972263 22.705148 10.012078 22.066789 10.119577 C 21.529294 8.91718 20.913497 7.689568 20.236652 6.554856 C 18.547192 6.930439 16.874985 7.453336 15.307622 8.241662 C 15.343456 9.625878 15.432374 10.953026 15.614194 12.300082 C 15.005033 12.690263 14.365347 13.024705 13.796 13.481244 C 13.218691 13.925838 12.62811 14.350526 12.105213 14.870768 C 11.060748 14.179324 9.953906 13.529021 8.815212 12.955693 C 7.586273 14.277533 6.43829 15.705545 5.499996 17.300777 C 6.206039 18.443452 6.942606 19.513133 7.738895 20.529729 L 7.76013 20.529729 L 7.76013 30.328066 C 7.77871 30.328066 7.795963 30.329393 7.814543 30.33072 L 13.821216 30.909357 C 14.13575 30.939881 14.3826 31.193366 14.405162 31.509228 L 14.589635 34.16087 L 19.830544 34.535126 L 20.191529 32.086537 C 20.237979 31.769349 20.510044 31.534444 20.831214 31.534444 L 27.168348 31.534444 C 27.489518 31.534444 27.761583 31.769349 27.80936 32.086537 L 28.170345 34.535126 L 33.409927 34.16087 L 33.595728 31.509228 C 33.616962 31.193366 33.863812 30.939881 34.178346 30.909357 L 40.183692 30.33072 C 40.200945 30.329393 40.218198 30.328066 40.236778 30.328066 L 40.236778 29.546375 L 40.239432 29.545048 L 40.239432 20.529729 L 40.260667 20.529729 C 41.056956 19.513133 41.793523 18.443452 42.499566 17.300777 C 41.561272 15.704217 40.413289 14.277533 39.184349 12.955693 Z M 15.484133 28.127654 C 13.485448 28.127654 11.863672 26.507205 11.863672 24.507193 C 11.863672 22.508507 13.485448 20.888059 15.484133 20.888059 C 17.482819 20.888059 19.104594 22.508507 19.104594 24.507193 C 19.104594 26.507205 17.484146 28.127654 15.484133 28.127654 Z M 32.515429 28.127654 C 30.515416 28.127654 28.894968 26.507205 28.894968 24.507193 C 28.894968 22.508507 30.515416 20.888059 32.515429 20.888059 C 34.514114 20.888059 36.134562 22.508507 36.134562 24.507193 C 36.134562 26.507205 34.514114 28.127654 32.515429 28.127654 Z M 32.515429 28.127654 " transform="matrix(2.943341,0,0,2.943341,-6.922737,-6.781457)"/>
<path style=" stroke:none;fill-rule:nonzero;fill:rgb(0%,0%,0%);fill-opacity:1;" d="M 39.671875 63.777344 C 38.453125 63.777344 37.464844 64.765625 37.464844 65.984375 C 37.464844 67.203125 38.453125 68.191406 39.671875 68.191406 C 40.890625 68.191406 41.878906 67.203125 41.878906 65.984375 C 41.878906 64.765625 40.890625 63.777344 39.671875 63.777344 Z M 39.671875 63.777344 "/>
<path style="fill:none;stroke-width:1;stroke-linecap:round;stroke-linejoin:round;stroke:rgb(0%,0%,0%);stroke-opacity:1;stroke-miterlimit:4;" d="M 23.999117 24.005531 L 23.999117 27.456116 " transform="matrix(2.943341,0,0,2.943341,-6.922737,-6.781457)"/>
</g>
</svg>
