<svg xmlns="http://www.w3.org/2000/svg" xmlns:xlink="http://www.w3.org/1999/xlink" width="128" zoomAndPan="magnify" viewBox="0 0 96 95.999999" height="128" preserveAspectRatio="xMidYMid meet" version="1.2"><g id="1ad8d3484c"><rect x="0" width="96" y="0" height="95.999999" style="fill:#ffffff;fill-opacity:1;stroke:none;"/><rect x="0" width="96" y="0" height="95.999999" style="fill:#ffffff;fill-opacity:1;stroke:none;"/><path style=" stroke:none;fill-rule:nonzero;fill:#000000;fill-opacity:1;" d="M 64.652344 47.847656 C 63.8125 47.847656 63.128906 48.53125 63.128906 49.371094 C 63.128906 50.214844 63.8125 50.898438 64.652344 50.898438 C 65.496094 50.898438 66.179688 50.214844 66.179688 49.371094 C 66.179688 48.53125 65.496094 47.847656 64.652344 47.847656 Z M 64.652344 47.847656 "/><path style="fill:none;stroke-width:1;stroke-linecap:round;stroke-linejoin:round;stroke:#000000;stroke-opacity:1;stroke-miterlimit:4;" d="M 7.759974 30.328572 L 7.750377 31.624228 C 7.752296 32.203915 7.759974 32.841186 7.759974 32.967872 C 7.759974 38.672601 14.996456 41.413634 23.989273 41.446265 L 24.010388 41.446265 C 33.003204 41.413634 40.235848 38.672601 40.235848 32.967872 C 40.235848 32.837347 40.233928 30.910178 40.235848 30.328572 " transform="matrix(2.035044,0,0,2.035044,-0.811423,-0.938739)"/><path style="fill:none;stroke-width:1;stroke-linecap:round;stroke-linejoin:round;stroke:#000000;stroke-opacity:1;stroke-miterlimit:4;" d="M 39.183967 12.955256 C 38.045708 13.529184 36.938162 14.179891 35.893958 14.870908 C 35.371857 14.350726 34.782573 13.926519 34.202887 13.481197 C 33.634717 13.024358 32.993607 12.690366 32.387048 12.300709 C 32.56748 10.953226 32.657696 9.624938 32.694166 8.240985 C 31.125942 7.453994 29.454065 6.929973 27.762993 6.555672 C 27.087332 7.690091 26.471176 8.916646 25.933718 10.120167 C 25.294527 10.012676 24.653417 9.972366 24.012307 9.964688 C 24.008468 9.964688 24.004629 9.964688 24.00079 9.964688 C 23.996951 9.964688 23.991193 9.964688 23.987354 9.964688 C 23.344324 9.972366 22.705134 10.012676 22.065943 10.120167 C 21.528485 8.916646 20.914248 7.690091 20.236668 6.555672 C 18.547515 6.929973 16.875638 7.453994 15.307414 8.240985 C 15.343884 9.624938 15.432181 10.953226 15.614533 12.300709 C 15.004134 12.690366 14.364944 13.024358 13.796774 13.481197 C 13.219008 13.926519 12.627804 14.350726 12.105703 14.870908 C 11.061499 14.179891 9.953953 13.529184 8.815694 12.955256 C 7.58722 14.277785 6.437445 15.705887 5.500733 17.300984 C 6.205186 18.443082 6.942271 19.512238 7.73886 20.529569 L 7.759974 20.529569 L 7.759974 30.328572 C 7.779169 30.328572 7.796445 30.328572 7.81372 30.330491 L 13.821728 30.910178 C 14.136524 30.93897 14.382219 31.194262 14.405253 31.509059 L 14.589524 34.161796 L 19.829736 34.534177 L 20.1906 32.086826 C 20.238587 31.77011 20.509236 31.534012 20.83171 31.534012 L 27.167951 31.534012 C 27.490425 31.534012 27.761074 31.77011 27.809061 32.086826 L 28.169925 34.534177 L 33.410137 34.161796 L 33.596327 31.509059 C 33.617442 31.194262 33.863137 30.93897 34.177933 30.910178 L 40.184021 30.330491 C 40.201297 30.328572 40.218572 30.328572 40.235848 30.328572 L 40.235848 29.545419 L 40.239687 29.545419 L 40.239687 20.529569 L 40.260801 20.529569 C 41.05739 19.512238 41.794475 18.443082 42.498928 17.300984 C 41.562216 15.703967 40.412441 14.277785 39.183967 12.955256 Z M 15.484007 28.126915 C 13.485817 28.126915 11.863847 26.506865 11.863847 24.506755 C 11.863847 22.508564 13.485817 20.888514 15.484007 20.888514 C 17.482198 20.888514 19.104168 22.508564 19.104168 24.506755 C 19.104168 26.506865 17.484117 28.126915 15.484007 28.126915 Z M 32.515654 28.126915 C 30.515544 28.126915 28.895493 26.506865 28.895493 24.506755 C 28.895493 22.508564 30.515544 20.888514 32.515654 20.888514 C 34.513844 20.888514 36.133895 22.508564 36.133895 24.506755 C 36.133895 26.506865 34.513844 28.126915 32.515654 28.126915 Z M 32.515654 28.126915 " transform="matrix(2.035044,0,0,2.035044,-0.811423,-0.938739)"/><path style=" stroke:none;fill-rule:nonzero;fill:#000000;fill-opacity:1;" d="M 31.40625 47.847656 C 30.5625 47.847656 29.878906 48.53125 29.878906 49.371094 C 29.878906 50.214844 30.5625 50.898438 31.40625 50.898438 C 32.246094 50.898438 32.929688 50.214844 32.929688 49.371094 C 32.929688 48.53125 32.246094 47.847656 31.40625 47.847656 Z M 31.40625 47.847656 "/><path style="fill:none;stroke-width:1;stroke-linecap:round;stroke-linejoin:round;stroke:#000000;stroke-opacity:1;stroke-miterlimit:4;" d="M 23.998871 24.005767 L 23.998871 27.457013 " transform="matrix(2.035044,0,0,2.035044,-0.811423,-0.938739)"/></g></svg>